<svg xmlns="http://www.w3.org/2000/svg" viewBox="0 0 24 24" fill="currentColor"><path d="M12 2C6.486 2 2 6.486 2 12s4.486 10 10 10 10-4.486 10-10S17.514 2 12 2zm0 19.5c-5.247 0-9.5-4.253-9.5-9.5S6.753 2.5 12 2.5s9.5 4.253 9.5 9.5-4.253 9.5-9.5 9.5z"/><path d="M3.159 12c0 4.874 3.967 8.841 8.841 8.841 4.874 0 8.841-3.967 8.841-8.841 0-4.874-3.967-8.841-8.841-8.841C7.126 3.159 3.159 7.126 3.159 12zM12 3.71c4.569 0 8.29 3.721 8.29 8.29S16.569 20.29 12 20.29 3.71 16.569 3.71 12 7.431 3.71 12 3.71z"/><path d="M12 2C6.486 2 2 6.486 2 12s4.486 10 10 10 10-4.486 10-10S17.514 2 12 2zm0 19.5c-5.247 0-9.5-4.253-9.5-9.5S6.753 2.5 12 2.5s9.5 4.253 9.5 9.5-4.253 9.5-9.5 9.5z"/></svg>